<svg width="60" height="60" viewBox="0 0 60 60" fill="none" xmlns="http://www.w3.org/2000/svg">
<path d="M50.6666 29.3332C47.6666 26.1665 43.6666 23.9998 39.5 23.1665C37.6666 22.6665 35.8333 22.3332 34 22.1665C38.6666 16.6665 37.8333 8.33316 32.3333 3.66649C26.8333 -1.00018 18.5 -0.166843 13.8333 5.33316C9.16662 10.8332 9.99995 19.1665 15.5 23.8332C16.5 24.6665 17.5 25.3332 18.5 25.6665V29.3332L15.8333 26.8332C13.5 24.4998 9.66662 24.4998 7.16662 26.8332C4.83329 29.1665 4.66662 32.8332 6.99995 35.1665L14.6666 44.1665C15 46.4998 15.8333 48.6665 17 50.6665C17.8333 52.1665 19 53.6665 20.1666 54.8332V57.9998C20.1666 58.9998 20.8333 59.6665 21.8333 59.6665H44.5C45.3333 59.6665 46.1666 58.8332 46.1666 57.9998V53.6665C49.3333 49.8332 51 44.9998 51 40.1665V30.4998C51.1666 29.8332 51 29.4998 50.6666 29.3332ZM14 13.6665C14 8.16649 18.5 3.83316 24 3.99982C29.5 3.99982 33.8333 8.49982 33.6666 13.9998C33.6666 16.9998 32.3333 19.6665 30 21.4998V13.1665C29.9148 11.7221 29.2805 10.365 28.2268 9.37335C27.1732 8.3817 25.7802 7.83065 24.3333 7.83316C21.3333 7.66649 18.6666 10.1665 18.6666 13.1665V21.8332C15.8333 20.1665 14.1666 16.9998 14 13.6665ZM47.8333 39.9998C48 44.3332 46.5 48.4998 43.6666 51.8332C43.3333 52.1665 43 52.4998 43 52.9998V56.4998H23.6666V54.1665C23.6666 53.6665 23.3333 53.1665 23 52.8332C21.8333 51.8332 20.8333 50.6665 20 49.1665C19 47.4998 18.3333 45.4998 18 43.4998C18 43.1665 17.8333 42.8332 17.6666 42.4998L9.66662 32.9998C9.16662 32.4998 8.83329 31.8332 8.83329 30.9998C8.83329 30.3332 9.16662 29.4998 9.66662 28.9998C10.8333 27.9998 12.5 27.9998 13.6666 28.9998L18.5 33.8332V38.8332L21.6666 37.1665V13.1665C21.8333 11.9998 22.8333 10.9998 24.1666 11.1665C25.3333 11.1665 26.5 11.9998 26.5 13.1665V32.3332L29.8333 32.9998V25.3332C30 25.1665 30.1666 25.1665 30.3333 24.9998C31.5 24.9998 32.6666 25.1665 33.8333 25.3332V33.8332L36.5 34.3332V25.6665L38.5 26.1665C39.3333 26.3332 40.1666 26.6665 41 26.9998V35.3332L43.6666 35.8332V28.1665C45.1666 28.8332 46.5 29.8332 47.6666 30.9998L47.8333 39.9998Z" fill="white"/>
</svg>
