<svg width="60" height="60" viewBox="0 0 60 60" fill="none" xmlns="http://www.w3.org/2000/svg">
<path d="M44.0627 41.25H43.1252V37.5H44.0627C46.3005 37.5896 48.4822 36.7865 50.1278 35.2674C51.7734 33.7484 52.7482 31.6378 52.8377 29.4C52.9272 27.1623 52.1241 24.9806 50.6051 23.335C49.086 21.6894 46.9755 20.7146 44.7377 20.625H43.1252L42.9377 19.0875C42.5217 15.9309 40.9725 13.0331 38.5785 10.9339C36.1846 8.83472 33.1092 7.67733 29.9252 7.67733C26.7413 7.67733 23.6659 8.83472 21.2719 10.9339C18.878 13.0331 17.3287 15.9309 16.9127 19.0875L16.8752 20.625H15.2627C13.025 20.7146 10.9144 21.6894 9.39536 23.335C7.87632 24.9806 7.07321 27.1623 7.16272 29.4C7.25223 31.6378 8.22703 33.7484 9.87266 35.2674C11.5183 36.7865 13.7 37.5896 15.9377 37.5H16.8752V41.25H15.9377C12.931 41.231 10.0374 40.1012 7.81332 38.0777C5.58923 36.0543 4.19163 33.2801 3.88922 30.2886C3.58681 27.297 4.40093 24.2993 6.17507 21.8716C7.94921 19.444 10.5581 17.758 13.5002 17.1375C14.3097 13.3623 16.3893 9.97875 19.3921 7.55155C22.3948 5.12436 26.1391 3.80029 30.0002 3.80029C33.8613 3.80029 37.6056 5.12436 40.6084 7.55155C43.6112 9.97875 45.6908 13.3623 46.5002 17.1375C49.4423 17.758 52.0512 19.444 53.8254 21.8716C55.5995 24.2993 56.4137 27.297 56.1112 30.2886C55.8088 33.2801 54.4112 36.0543 52.1871 38.0777C49.963 40.1012 47.0695 41.231 44.0627 41.25Z" fill="white"/>
<path d="M31.875 49.0688V26.25H28.125V49.0688L23.2687 44.2313L20.625 46.875L30 56.25L39.375 46.875L36.7313 44.2313L31.875 49.0688Z" fill="white"/>
</svg>
