<svg width="60" height="60" viewBox="0 0 60 60" fill="none" xmlns="http://www.w3.org/2000/svg">
<path d="M6 10.494C6 8.01 8.013 6 10.5 6H13.5C15.981 6 17.997 8.01 17.997 10.494V49.44C17.997 51.921 15.981 53.931 13.497 53.931H10.497C8.013 53.931 6 51.921 6 49.44V10.494ZM10.5 8.994C10.1022 8.994 9.72064 9.15204 9.43934 9.43334C9.15804 9.71464 9 10.0962 9 10.494V49.44C9.00079 49.8373 9.15918 50.2181 9.4404 50.4987C9.72162 50.7794 10.1027 50.937 10.5 50.937H13.5C13.8973 50.9362 14.2781 50.7778 14.5587 50.4966C14.8394 50.2154 14.997 49.8343 14.997 49.437V10.497C14.997 10.0992 14.839 9.71764 14.5577 9.43634C14.2764 9.15504 13.8948 8.997 13.497 8.997H10.497L10.5 8.994ZM20.994 10.494C20.994 8.01 23.01 6 25.494 6H28.494C30.978 6 32.991 8.01 32.991 10.494V49.44C32.991 51.921 30.978 53.931 28.491 53.931H25.491C23.01 53.931 20.994 51.921 20.994 49.44V10.494ZM25.494 8.994C25.0962 8.994 24.7146 9.15204 24.4333 9.43334C24.152 9.71464 23.994 10.0962 23.994 10.494V49.44C23.9948 49.8373 24.1532 50.2181 24.4344 50.4987C24.7156 50.7794 25.0967 50.937 25.494 50.937H28.494C28.8918 50.937 29.2734 50.779 29.5547 50.4977C29.836 50.2164 29.994 49.8348 29.994 49.437V10.497C29.994 10.0992 29.836 9.71764 29.5547 9.43634C29.2734 9.15504 28.8918 8.997 28.494 8.997H25.494V8.994ZM47.154 18.471C47.0169 17.8771 46.7607 17.3173 46.4007 16.8254C46.0408 16.3336 45.5847 15.92 45.0601 15.6097C44.5355 15.2994 43.9533 15.099 43.3489 15.0205C42.7445 14.942 42.1305 14.9871 41.544 15.153L39.309 15.783C38.2177 16.0917 37.2835 16.8016 36.6937 17.7703C36.1039 18.7389 35.9022 19.8948 36.129 21.006L42.138 50.406C42.2608 51.0018 42.5031 51.5666 42.8503 52.0662C43.1975 52.5657 43.6423 52.9897 44.158 53.3124C44.6737 53.6352 45.2495 53.85 45.8505 53.944C46.4516 54.0379 47.0654 54.009 47.655 53.859L50.61 53.109C52.98 52.509 54.432 50.127 53.886 47.748L47.154 18.468V18.471ZM42.36 18.036C42.5555 17.9803 42.7602 17.965 42.9618 17.9909C43.1634 18.0168 43.3576 18.0834 43.5327 18.1866C43.7078 18.2899 43.86 18.4276 43.9803 18.5915C44.1005 18.7554 44.1861 18.942 44.232 19.14L50.961 48.42C51.0474 48.8012 50.9816 49.201 50.7777 49.5344C50.5737 49.8677 50.2477 50.1084 49.869 50.205L46.914 50.955C46.7176 51.005 46.5131 51.0147 46.3129 50.9835C46.1127 50.9524 45.9208 50.8809 45.7489 50.7735C45.5771 50.6661 45.4287 50.5251 45.3129 50.3588C45.1971 50.1925 45.1162 50.0044 45.075 49.806L39.066 20.406C38.9911 20.0359 39.0586 19.6512 39.2549 19.3287C39.4512 19.0062 39.7619 18.7695 40.125 18.666L42.36 18.036Z" fill="white"/>
</svg>
