<svg width="109" height="90" viewBox="0 0 109 90" fill="none" xmlns="http://www.w3.org/2000/svg">
<rect y="1" width="109" height="89" rx="10" fill="#141414"/>
<path d="M42.768 70C41.712 70 41.184 69.472 41.184 68.416V18.304C41.184 17.248 41.712 16.72 42.768 16.72H48.096C49.152 16.72 49.68 17.248 49.68 18.304V49.192L63.36 34.576C63.888 34.048 64.32 33.712 64.656 33.568C65.04 33.424 65.616 33.352 66.384 33.352H71.784C72.696 33.352 73.152 33.688 73.152 34.36C73.152 34.792 72.936 35.248 72.504 35.728L57.816 50.848L73.728 67.624C74.16 68.104 74.376 68.56 74.376 68.992C74.376 69.664 73.92 70 73.008 70H67.032C66.6 70 66.24 69.976 65.952 69.928C65.664 69.88 65.4 69.784 65.16 69.64C64.92 69.448 64.608 69.136 64.224 68.704L49.68 52.936V68.416C49.68 69.472 49.152 70 48.096 70H42.768Z" fill="white"/>
</svg>
