<svg width="45" height="42" viewBox="0 0 45 42" fill="none" xmlns="http://www.w3.org/2000/svg">
<path d="M15.3335 38V4C15.3335 1.8 16.9835 0 19.0002 0H41.0002C43.0168 0 44.6668 1.8 44.6668 4V38C44.6668 40.2 43.0168 42 41.0002 42H19.0002C16.9835 42 15.3335 40.2 15.3335 38Z" fill="white"/>
<path d="M40.0833 3H19.9167C19.3667 3 19 3.4 19 4V33C19 33.6 19.3667 34 19.9167 34H40.0833C40.6333 34 41 33.6 41 33V4C41 3.4 40.6333 3 40.0833 3Z" fill="black"/>
<path d="M26.3335 37H33.6668V39H26.3335V37Z" fill="#546E7A"/>
<path d="M22.6665 8H37.3332V11H22.6665V8Z" fill="white"/>
<path d="M22.6665 15H37.3332V17H22.6665V15Z" fill="white"/>
<path d="M22.6665 19H33.6665V21H22.6665V19Z" fill="white"/>
<path d="M22.6665 23H37.3332V25H22.6665V23Z" fill="white"/>
<path d="M22.6665 27H33.6665V29H22.6665V27Z" fill="white"/>
<path d="M10.313 15C8.535 15 6.863 15.934 5.969 17.469L0.688 26.562C0.23968 27.331 0.00234933 28.2048 0 29.095V39H10V34.687C12.629 33.898 13.984 32.516 14.406 32H20.719C21.996 32 22.965 30.738 22.656 29.5L22.531 29.031C22.3135 28.1671 21.8146 27.4003 21.1129 26.8514C20.4113 26.3026 19.5468 26.003 18.656 26H11.781L11.281 24H15C15.8908 23.997 14.2983 23.5488 15 23C15.7017 22.4512 15 17.5 15 18C15.5 17.5 15.3281 15.125 15.3281 15H10.313ZM10.313 17H15C15.566 17 15 17.566 15 17V18V20C15 18 15 21 15 21V22H11.281C10.004 22 9.035 23.262 9.344 24.5L9.844 26.5C9.95326 26.9301 10.2031 27.3113 10.5539 27.5831C10.9047 27.8549 11.3363 28.0016 11.78 28H18.655C19.577 28 20.37 28.605 20.593 29.5L20.718 30H13.5L13.187 30.406C13.187 30.406 11.747 32.453 8.812 33.031L8 33.188V37H2V29.094C2 28.562 2.137 28.024 2.406 27.562L7.72 18.5C7.9838 18.0455 8.36192 17.6679 8.8168 17.4048C9.27168 17.1416 9.78749 17.0021 10.313 17Z" fill="white"/>
<rect x="14.3301" y="17" width="1" height="7" fill="#141414"/>
<rect x="14.3301" y="22" width="1" height="2" fill="white"/>
</svg>
