<svg width="46" height="46" viewBox="0 0 46 46" fill="none" xmlns="http://www.w3.org/2000/svg">
<path d="M21.5625 2.875H24.4375V10.0625H21.5625V2.875Z" fill="white"/>
<path d="M31.175 12.7938L36.2149 7.75244L38.2475 9.7865L33.2077 14.8264L31.175 12.7938Z" fill="white"/>
<path d="M35.9375 21.5625H43.125V24.4375H35.9375V21.5625Z" fill="white"/>
<path d="M31.175 33.2065L33.2077 31.1738L38.2475 36.2137L36.2149 38.2478L31.175 33.2065Z" fill="white"/>
<path d="M21.5625 35.9375H24.4375V43.125H21.5625V35.9375Z" fill="white"/>
<path d="M7.75391 36.2137L12.7938 31.1738L14.8264 33.2079L9.78653 38.2478L7.75391 36.2137Z" fill="white"/>
<path d="M2.875 21.5625H10.0625V24.4375H2.875V21.5625Z" fill="white"/>
<path d="M7.75391 9.7865L9.78653 7.75244L14.8264 12.7938L12.7938 14.8264L7.75391 9.7865Z" fill="white"/>
<path d="M23 17.25C24.1372 17.25 25.2489 17.5872 26.1945 18.2191C27.1401 18.8509 27.8771 19.7489 28.3123 20.7996C28.7475 21.8502 28.8614 23.0064 28.6395 24.1218C28.4177 25.2372 27.87 26.2617 27.0659 27.0659C26.2617 27.87 25.2372 28.4177 24.1218 28.6395C23.0064 28.8614 21.8502 28.7475 20.7996 28.3123C19.7489 27.8771 18.8509 27.1401 18.2191 26.1945C17.5872 25.2489 17.25 24.1372 17.25 23C17.2519 21.4756 17.8583 20.0142 18.9362 18.9362C20.0142 17.8583 21.4756 17.2519 23 17.25ZM23 14.375C21.2941 14.375 19.6266 14.8808 18.2082 15.8286C16.7898 16.7763 15.6843 18.1233 15.0315 19.6994C14.3787 21.2754 14.2079 23.0096 14.5407 24.6827C14.8735 26.3557 15.695 27.8926 16.9012 29.0988C18.1074 30.305 19.6443 31.1265 21.3173 31.4593C22.9904 31.7921 24.7246 31.6213 26.3006 30.9685C27.8767 30.3157 29.2237 29.2102 30.1714 27.7918C31.1192 26.3734 31.625 24.7059 31.625 23C31.625 20.7125 30.7163 18.5187 29.0988 16.9012C27.4813 15.2837 25.2875 14.375 23 14.375Z" fill="white"/>
</svg>
